<?xml version="1.0" encoding="utf-8"?>
<!-- Generator: Adobe Illustrator 24.0.3, SVG Export Plug-In . SVG Version: 6.00 Build 0)  -->
<svg version="1.1" id="Layer_1" xmlns="http://www.w3.org/2000/svg" xmlns:xlink="http://www.w3.org/1999/xlink" x="0px" y="0px"
	 viewBox="0 0 26 26" style="enable-background:new 0 0 26 26;" xml:space="preserve">
<style type="text/css">
	.st0{fill-rule:evenodd;clip-rule:evenodd;fill:#691DD3;}
	.st1{opacity:0.5;fill-rule:evenodd;clip-rule:evenodd;fill:#FFFFFF;enable-background:new    ;}
	.st2{fill-rule:evenodd;clip-rule:evenodd;fill:#FFFFFF;}
</style>
<title>Group 39</title>
<desc>Created with Sketch.</desc>
<g id="Page-2">
	<g id="SME_6" transform="translate(-17.000000, -424.000000)">
		<g id="Group-34">
			<g id="Group-38">
				<g id="Group-18" transform="translate(17.000000, 424.000000)">
					<g id="Group-46">
						<g id="Group-39">
							<path id="Rectangle-2" class="st0" d="M13,0L13,0c7.18,0,13,5.82,13,13l0,0c0,7.18-5.82,13-13,13l0,0C5.82,26,0,20.18,0,13
								l0,0C0,5.82,5.82,0,13,0z"/>
							<g id="Group-2" transform="translate(7.000000, 5.000000)">
								<path id="Path" class="st1" d="M5.512,0.509l8.389,6.437c0.291,0.233,0.46,0.585,0.46,0.957s-0.169,0.725-0.46,0.957
									l-8.488,6.64c-0.371,0.292-0.875,0.345-1.299,0.139c-0.424-0.207-0.692-0.638-0.69-1.109L3.512,1.464
									C3.511,0.99,3.783,0.559,4.21,0.355S5.144,0.211,5.512,0.509z"/>
								<path id="Path_1_" class="st2" d="M2.133,1.408l7.885,5.432c0.669,0.453,0.648,1.333-0.043,1.813l-7.861,5.917
									c-0.768,0.533-1.867-0.032-1.837-0.923L0.24,2.371c0.033-0.433,0.289-0.817,0.676-1.014S1.764,1.179,2.133,1.408z"/>
							</g>
						</g>
					</g>
				</g>
			</g>
		</g>
	</g>
</g>
</svg>
