<?xml version="1.0" encoding="utf-8"?>
<!-- Generator: Adobe Illustrator 24.0.3, SVG Export Plug-In . SVG Version: 6.00 Build 0)  -->
<svg version="1.1" id="Layer_1" xmlns="http://www.w3.org/2000/svg" xmlns:xlink="http://www.w3.org/1999/xlink" x="0px" y="0px"
	 viewBox="0 0 35 35" style="enable-background:new 0 0 35 35;" xml:space="preserve">
<style type="text/css">
	.st0{opacity:0.1;fill-rule:evenodd;clip-rule:evenodd;fill:#07003B;enable-background:new    ;}
	.st1{fill-rule:evenodd;clip-rule:evenodd;fill:#FFFFFF;}
</style>
<title>Group 26</title>
<desc>Created with Sketch.</desc>
<g id="Page-2">
	<g id="SME_8" transform="translate(-312.000000, -36.000000)">
		<g id="Group-27" transform="translate(0.000000, 24.000000)">
			<g id="Group-26" transform="translate(312.000000, 12.000000)">
				<path id="Rectangle-2" class="st0" d="M17.5,0L17.5,0C27.165,0,35,7.835,35,17.5l0,0C35,27.165,27.165,35,17.5,35l0,0
					C7.835,35,0,27.165,0,17.5l0,0C0,7.835,7.835,0,17.5,0z"/>
				<path id="Fill-1" class="st1" d="M17.651,27c0.989,0,1.797-0.809,1.797-1.802h-3.599C15.849,26.191,16.662,27,17.651,27z
					 M23.5,21.599v-4.948c0-2.791-1.89-5.041-4.5-5.669v-0.633C19,9.629,18.371,9,17.651,9c-0.721,0-1.349,0.629-1.349,1.349v0.633
					c-2.611,0.628-4.5,2.878-4.5,5.669v4.948L10,23.401v0.901h15.302v-0.901L23.5,21.599z"/>
			</g>
		</g>
	</g>
</g>
</svg>
