<?xml version="1.0" encoding="utf-8"?>
<!-- Generator: Adobe Illustrator 24.0.3, SVG Export Plug-In . SVG Version: 6.00 Build 0)  -->
<svg version="1.1" id="Layer_1" xmlns="http://www.w3.org/2000/svg" xmlns:xlink="http://www.w3.org/1999/xlink" x="0px" y="0px"
	 viewBox="0 0 26 26" style="enable-background:new 0 0 26 26;" xml:space="preserve">
<style type="text/css">
	.st0{fill-rule:evenodd;clip-rule:evenodd;fill:#2A6DFF;}
	.st1{fill-rule:evenodd;clip-rule:evenodd;fill:#FFFFFF;}
</style>
<title>Group 45</title>
<desc>Created with Sketch.</desc>
<g id="Page-2">
	<g id="SME_6" transform="translate(-16.000000, -220.000000)">
		<g id="Group-34">
			<g id="Group-38">
				<g id="Group-18" transform="translate(16.000000, 220.000000)">
					<g id="contact">
						<g id="Group-45">
							<path id="Rectangle-2" class="st0" d="M13,0L13,0c7.18,0,13,5.82,13,13l0,0c0,7.18-5.82,13-13,13l0,0C5.82,26,0,20.18,0,13
								l0,0C0,5.82,5.82,0,13,0z"/>
							<path id="Path" class="st1" d="M18.742,17.664c-0.164,0.359-0.533,0.672-1.107,0.938C17.061,18.867,16.551,19,16.105,19
								c-0.125,0-0.258-0.01-0.398-0.029c-0.141-0.02-0.26-0.039-0.357-0.059c-0.098-0.02-0.227-0.055-0.387-0.105
								c-0.16-0.051-0.276-0.09-0.346-0.117c-0.071-0.027-0.199-0.076-0.387-0.146c-0.188-0.071-0.305-0.113-0.351-0.129
								c-1.281-0.469-2.533-1.315-3.756-2.537c-1.223-1.223-2.068-2.475-2.537-3.756c-0.016-0.047-0.058-0.164-0.129-0.352
								c-0.07-0.187-0.119-0.316-0.147-0.387c-0.027-0.07-0.066-0.186-0.117-0.346c-0.051-0.16-0.086-0.289-0.105-0.387
								c-0.02-0.098-0.039-0.217-0.059-0.357C7.01,10.153,7,10.02,7,9.895C7,9.449,7.133,8.94,7.399,8.365
								c0.266-0.574,0.578-0.943,0.938-1.107C8.75,7.086,9.145,7,9.52,7c0.086,0,0.148,0.008,0.187,0.023
								c0.039,0.016,0.104,0.086,0.193,0.211c0.09,0.125,0.188,0.283,0.293,0.475c0.105,0.191,0.209,0.377,0.311,0.557
								c0.102,0.18,0.199,0.357,0.293,0.533c0.094,0.176,0.152,0.287,0.176,0.334c0.023,0.039,0.074,0.113,0.152,0.223
								c0.078,0.109,0.137,0.207,0.176,0.293c0.039,0.086,0.059,0.168,0.059,0.246c0,0.117-0.08,0.26-0.24,0.428
								c-0.16,0.168-0.336,0.322-0.527,0.463c-0.191,0.141-0.367,0.291-0.527,0.451c-0.16,0.16-0.24,0.291-0.24,0.392
								c0,0.055,0.014,0.119,0.041,0.193c0.027,0.074,0.053,0.135,0.076,0.182c0.023,0.047,0.061,0.113,0.111,0.199
								c0.051,0.086,0.084,0.141,0.1,0.164c0.43,0.773,0.924,1.44,1.482,1.998c0.559,0.559,1.225,1.053,1.998,1.483
								c0.023,0.016,0.078,0.049,0.164,0.1c0.086,0.051,0.152,0.088,0.199,0.111c0.047,0.023,0.107,0.049,0.182,0.076
								c0.074,0.027,0.139,0.041,0.194,0.041c0.125,0,0.297-0.129,0.516-0.387c0.219-0.258,0.442-0.514,0.668-0.768
								c0.226-0.254,0.41-0.381,0.551-0.381c0.078,0,0.16,0.019,0.246,0.058c0.086,0.039,0.183,0.098,0.293,0.176
								c0.11,0.078,0.184,0.129,0.223,0.153l0.621,0.34c0.414,0.219,0.76,0.412,1.037,0.58s0.428,0.283,0.451,0.346
								c0.016,0.039,0.023,0.102,0.023,0.188C19.001,16.856,18.915,17.251,18.742,17.664z"/>
						</g>
					</g>
				</g>
			</g>
		</g>
	</g>
</g>
</svg>
