<?xml version="1.0" encoding="utf-8"?>
<!-- Generator: Adobe Illustrator 24.0.3, SVG Export Plug-In . SVG Version: 6.00 Build 0)  -->
<svg version="1.1" id="Layer_1" xmlns="http://www.w3.org/2000/svg" xmlns:xlink="http://www.w3.org/1999/xlink" x="0px" y="0px"
	 viewBox="0 0 18 18" style="enable-background:new 0 0 18 18;" xml:space="preserve">
<style type="text/css">
	.st0{opacity:0.7;}
	.st1{fill-rule:evenodd;clip-rule:evenodd;fill:#31394E;}
</style>
<title>Path</title>
<desc>Created with Sketch.</desc>
<g id="Page-2" class="st0">
	<g id="SME_9" transform="translate(-326.000000, -41.000000)">
		<path id="Shape" class="st1" d="M335,41c-4.963,0-9,4.037-9,9s4.037,9,9,9s9-4.037,9-9S339.963,41,335,41z M338.64,52.58
			c0.146,0.146,0.146,0.384,0,0.53l-0.53,0.53c-0.146,0.146-0.384,0.146-0.53,0l-2.58-2.58l-2.58,2.58
			c-0.146,0.146-0.384,0.146-0.53,0l-0.53-0.53c-0.147-0.146-0.147-0.384,0-0.53l2.58-2.58l-2.58-2.58
			c-0.147-0.146-0.147-0.384,0-0.53l0.53-0.53c0.146-0.146,0.384-0.146,0.53,0l2.58,2.58l2.58-2.58c0.146-0.146,0.384-0.146,0.53,0
			l0.53,0.53c0.147,0.146,0.147,0.384,0,0.53l-2.58,2.58L338.64,52.58z"/>
	</g>
</g>
</svg>
