<?xml version="1.0" encoding="utf-8"?>
<!-- Generator: Adobe Illustrator 24.0.3, SVG Export Plug-In . SVG Version: 6.00 Build 0)  -->
<svg version="1.1" id="Layer_1" xmlns="http://www.w3.org/2000/svg" xmlns:xlink="http://www.w3.org/1999/xlink" x="0px" y="0px"
	 viewBox="0 0 13 13" style="enable-background:new 0 0 13 13;" xml:space="preserve">
<style type="text/css">
	.st0{fill-rule:evenodd;clip-rule:evenodd;}
</style>
<title>Path</title>
<desc>Created with Sketch.</desc>
<g id="Page-2">
	<g id="SME_7" transform="translate(-317.000000, -113.000000)">
		<path id="Path" class="st0" d="M329.372,125.315c-0.425,0.425-1.115,0.425-1.54,0l-4.044-4.044l-4.237,4.237
			c-0.425,0.425-1.115,0.425-1.54,0s-0.425-1.115,0-1.54l4.237-4.237l-4.044-4.044c-0.425-0.425-0.425-1.116,0-1.54
			c0.425-0.425,1.115-0.425,1.54,0l4.044,4.044l3.852-3.852c0.425-0.425,1.115-0.425,1.54,0s0.425,1.115,0,1.54l-3.852,3.852
			l4.044,4.044C329.797,124.2,329.797,124.89,329.372,125.315z"/>
	</g>
</g>
</svg>
