<?xml version="1.0" encoding="utf-8"?>
<!-- Generator: Adobe Illustrator 24.1.0, SVG Export Plug-In . SVG Version: 6.00 Build 0)  -->
<svg version="1.1" id="Capa_1" xmlns="http://www.w3.org/2000/svg" xmlns:xlink="http://www.w3.org/1999/xlink" x="0px" y="0px"
	 viewBox="0 0 48 48" style="enable-background:new 0 0 48 48;" xml:space="preserve">
<style type="text/css">
	.st0{fill:#DC4E41;}
	.st1{fill:#FFFFFF;}
</style>
<g>
	<g>
		<circle id="XMLID_30_" class="st0" cx="24" cy="23.999" r="24"/>
	</g>
	<g>
		<path class="st0" d="M8.356,25.073c-0.085,4.129,2.759,8.07,6.671,9.355c3.685,1.238,8.216,0.312,10.669-2.844
			c1.79-2.211,2.197-5.16,2.003-7.914c-3.156-0.028-6.312-0.019-9.463-0.014c-0.005,1.124,0,2.244,0.005,3.369
			c1.89,0.052,3.78,0.028,5.67,0.066c-0.477,1.635-1.564,3.156-3.213,3.746c-3.184,1.403-7.247-0.43-8.249-3.77
			c-1.209-3.199,0.771-7.059,4.04-7.99c2.027-0.713,4.115,0.09,5.85,1.144c0.879-0.822,1.701-1.701,2.509-2.589
			c-1.971-1.649-4.503-2.66-7.106-2.438C12.632,15.255,8.162,19.971,8.356,25.073z"/>
		<path class="st0" d="M33.842,20.821c-0.009,0.94-0.019,1.885-0.024,2.825c-0.945,0.009-1.885,0.014-2.825,0.019
			c0,0.94,0,1.876,0,2.816c0.94,0.005,1.885,0.009,2.825,0.019c0.009,0.94,0.009,1.88,0.019,2.825c0.936,0,1.876-0.005,2.816,0
			c0.005-0.945,0.009-1.885,0.019-2.83c0.94-0.005,1.885-0.009,2.825-0.014c0-0.94,0-1.876,0-2.816
			c-0.94-0.005-1.885-0.009-2.825-0.019c-0.005-0.94-0.014-1.885-0.019-2.825C35.713,20.821,34.777,20.821,33.842,20.821z"/>
		<g>
			<path class="st1" d="M8.356,25.073c-0.194-5.103,4.276-9.818,9.383-9.879c2.603-0.222,5.136,0.789,7.106,2.438
				c-0.808,0.889-1.63,1.767-2.509,2.589c-1.734-1.054-3.823-1.857-5.85-1.144c-3.269,0.931-5.249,4.791-4.04,7.99
				c1.002,3.34,5.065,5.174,8.249,3.77c1.649-0.59,2.736-2.112,3.213-3.746c-1.89-0.038-3.78-0.014-5.67-0.066
				c-0.005-1.124-0.009-2.244-0.005-3.369c3.151-0.005,6.307-0.014,9.463,0.014c0.194,2.755-0.213,5.703-2.003,7.914
				c-2.452,3.156-6.983,4.082-10.669,2.844C11.115,33.143,8.271,29.203,8.356,25.073z"/>
			<path class="st1" d="M33.842,20.821c0.936,0,1.871,0,2.811,0c0.005,0.94,0.014,1.885,0.019,2.825
				c0.94,0.009,1.885,0.014,2.825,0.019c0,0.94,0,1.876,0,2.816c-0.94,0.005-1.885,0.009-2.825,0.014
				c-0.009,0.945-0.014,1.885-0.019,2.83c-0.94-0.005-1.881,0-2.816,0c-0.009-0.945-0.009-1.885-0.019-2.825
				c-0.94-0.01-1.885-0.014-2.825-0.019c0-0.94,0-1.876,0-2.816c0.94-0.005,1.881-0.009,2.825-0.019
				C33.822,22.706,33.832,21.761,33.842,20.821z"/>
		</g>
	</g>
</g>
</svg>
