<?xml version="1.0" encoding="utf-8"?>
<!-- Generator: Adobe Illustrator 24.0.3, SVG Export Plug-In . SVG Version: 6.00 Build 0)  -->
<svg version="1.1" id="Layer_1" xmlns="http://www.w3.org/2000/svg" xmlns:xlink="http://www.w3.org/1999/xlink" x="0px" y="0px"
	 viewBox="0 0 26 26" style="enable-background:new 0 0 26 26;" xml:space="preserve">
<style type="text/css">
	.st0{fill-rule:evenodd;clip-rule:evenodd;fill:#ED4958;}
	.st1{fill:#FFFFFF;}
</style>
<title>Group 52</title>
<desc>Created with Sketch.</desc>
<g id="logout-_x28_1_x29_" transform="translate(15.500000, 13.000000) scale(-1, 1) translate(-15.500000, -13.000000) translate(8.000000, 7.000000)">
</g>
<path id="Rectangle-2" class="st0" d="M13,0L13,0c7.18,0,13,5.82,13,13l0,0c0,7.18-5.82,13-13,13l0,0C5.82,26,0,20.18,0,13l0,0
	C0,5.82,5.82,0,13,0z"/>
<path id="Combined-Shape-Copy-2" class="st1" d="M18.741,13.618l-0.856,0.799c-0.258,0.241-0.258,0.632,0,0.873
	c0.129,0.121,0.299,0.181,0.468,0.181c0.169,0,0.339-0.06,0.468-0.181l1.985-1.853c0.001-0.001,0.001-0.001,0.002-0.002
	c0.015-0.014,0.029-0.028,0.042-0.043c0.006-0.007,0.012-0.015,0.018-0.022c0.007-0.009,0.014-0.017,0.021-0.026
	c0.006-0.009,0.012-0.018,0.018-0.027c0.005-0.008,0.011-0.016,0.016-0.025c0.005-0.009,0.01-0.019,0.015-0.028
	c0.005-0.009,0.009-0.018,0.013-0.027c0.004-0.009,0.007-0.018,0.011-0.028c0.004-0.01,0.008-0.019,0.011-0.029
	c0.003-0.009,0.005-0.019,0.008-0.028c0.003-0.01,0.006-0.02,0.008-0.031c0.002-0.011,0.004-0.022,0.005-0.033
	c0.001-0.009,0.003-0.018,0.004-0.027c0.002-0.02,0.003-0.04,0.003-0.06c0,0,0-0.001,0-0.001s0-0.001,0-0.001
	c0-0.02-0.001-0.04-0.003-0.06c-0.001-0.009-0.003-0.018-0.004-0.028c-0.002-0.011-0.003-0.022-0.005-0.032
	c-0.002-0.01-0.005-0.021-0.008-0.031c-0.002-0.009-0.005-0.019-0.008-0.028c-0.003-0.01-0.007-0.02-0.011-0.03
	c-0.003-0.009-0.007-0.018-0.011-0.027c-0.004-0.009-0.009-0.018-0.014-0.027c-0.005-0.009-0.009-0.019-0.014-0.028
	c-0.005-0.009-0.011-0.017-0.016-0.025c-0.006-0.009-0.011-0.018-0.017-0.026c-0.007-0.009-0.014-0.018-0.022-0.027
	c-0.006-0.007-0.011-0.014-0.017-0.021c-0.014-0.016-0.028-0.031-0.044-0.045l-1.985-1.853c-0.258-0.241-0.677-0.241-0.936,0
	c-0.258,0.241-0.258,0.632,0,0.873l0.856,0.799h-7.667c-0.365,0-0.662,0.277-0.662,0.618s0.296,0.618,0.662,0.618H18.741z M7.556,7
	C7.184,7,6.882,7.298,6.882,7.667v10.667C6.882,18.702,7.184,19,7.556,19h8.535c0.372,0,0.674-0.298,0.674-0.667v-2.667
	c0-0.368-0.302-0.667-0.674-0.667c-0.372,0-0.674,0.298-0.674,0.667v2H8.23V8.333h7.187v2c0,0.368,0.302,0.667,0.674,0.667
	c0.372,0,0.674-0.298,0.674-0.667V7.667C16.765,7.298,16.463,7,16.091,7H7.556z"/>
</svg>
