<?xml version="1.0" encoding="utf-8"?>
<!-- Generator: Adobe Illustrator 24.0.3, SVG Export Plug-In . SVG Version: 6.00 Build 0)  -->
<svg version="1.1" id="Layer_1" xmlns="http://www.w3.org/2000/svg" xmlns:xlink="http://www.w3.org/1999/xlink" x="0px" y="0px"
	 viewBox="0 0 135 71" style="enable-background:new 0 0 135 71;" xml:space="preserve">
<style type="text/css">
	.st0{fill-rule:evenodd;clip-rule:evenodd;fill:#E8FCFB;}
	.st1{fill-rule:evenodd;clip-rule:evenodd;fill:#F3F7FF;}
	.st2{fill:#9F64FF;}
	.st3{fill-rule:evenodd;clip-rule:evenodd;fill:#FFFFFF;}
	.st4{fill:#FFFFFF;}
</style>
<title>EmptyState</title>
<desc>Created with Sketch.</desc>
<g id="Page-2">
	<g id="SME_10" transform="translate(-113.000000, -163.000000)">
		<g id="EmptyState" transform="translate(113.000000, 164.000000)">
			<g id="Background">
				<path class="st0" d="M103.793,56.322H37.011c-3.111,0-5.632-2.522-5.632-5.632s2.522-5.632,5.632-5.632H5.632
					C2.522,45.057,0,42.536,0,39.425c0-3.111,2.522-5.632,5.632-5.632h32.184c3.111,0,5.632-2.522,5.632-5.632
					s-2.522-5.632-5.632-5.632H17.701c-3.111,0-5.632-2.522-5.632-5.632s2.522-5.632,5.632-5.632h32.184
					c-3.111,0-5.632-2.522-5.632-5.632S46.774,0,49.885,0h78.851c3.111,0,5.632,2.522,5.632,5.632s-2.522,5.632-5.632,5.632H96.552
					c3.111,0,5.632,2.522,5.632,5.632s-2.522,5.632-5.632,5.632h17.701c3.111,0,5.632,2.522,5.632,5.632s-2.522,5.632-5.632,5.632
					h-8.186c-3.922,0-7.101,2.522-7.101,5.632c0,2.074,1.609,3.951,4.828,5.632c3.111,0,5.632,2.522,5.632,5.632
					S106.904,56.322,103.793,56.322z M128.736,33.793c-3.111,0-5.632-2.522-5.632-5.632s2.522-5.632,5.632-5.632
					c3.111,0,5.632,2.522,5.632,5.632S131.846,33.793,128.736,33.793z"/>
			</g>
			<g id="Search" transform="translate(32.183908, 0.804598)">
				<g id="Oval">
					<circle class="st1" cx="26.954" cy="26.954" r="26.954"/>
					<path class="st2" d="M26.954,55.158c-15.552,0-28.204-12.652-28.204-28.204S11.402-1.25,26.954-1.25
						s28.204,12.652,28.204,28.204S42.506,55.158,26.954,55.158z M26.954,1.25C12.781,1.25,1.25,12.781,1.25,26.954
						c0,14.173,11.531,25.704,25.704,25.704s25.704-11.531,25.704-25.704C52.658,12.781,41.127,1.25,26.954,1.25z"/>
				</g>
				<g id="Oval_1_">
					<path class="st3" d="M22.635,47.869c1.415,0.261,2.855,0.397,4.319,0.407c11.776,0,21.322-9.546,21.322-21.322
						S38.73,5.632,26.954,5.632c-3.025,0-5.903,0.63-8.51,1.766c-4.53,1.974-8.241,5.476-10.482,9.854
						c-1.49,2.91-2.33,6.208-2.33,9.702c0,3.17,0.692,6.179,1.933,8.883c0.886,1.931,2.052,3.706,3.445,5.275"/>
					<path class="st2" d="M26.954,49.525c-1.539-0.01-3.066-0.154-4.546-0.428c-0.679-0.126-1.127-0.778-1.001-1.457
						s0.777-1.123,1.457-1.002c1.336,0.247,2.715,0.378,4.1,0.387c11.06,0,20.064-9.004,20.064-20.071S38.022,6.882,26.954,6.882
						c-2.785,0-5.479,0.559-8.01,1.662c-4.249,1.851-7.754,5.146-9.869,9.278c-1.455,2.843-2.193,5.916-2.193,9.132
						c0,2.918,0.612,5.731,1.819,8.361c0.828,1.804,1.919,3.475,3.244,4.966c0.458,0.516,0.412,1.306-0.104,1.765
						c-0.516,0.457-1.305,0.412-1.765-0.104c-1.489-1.676-2.716-3.555-3.647-5.583c-1.358-2.959-2.047-6.124-2.047-9.404
						c0-3.617,0.83-7.072,2.467-10.271c2.378-4.645,6.319-8.349,11.096-10.431c2.847-1.241,5.878-1.87,9.009-1.87
						c12.446,0,22.572,10.125,22.572,22.572S39.4,49.525,26.954,49.525z"/>
				</g>
				<g id="Oval_2_">
					<path class="st3" d="M13.515,43.508c1.728,1.405,3.681,2.544,5.796,3.357"/>
					<path class="st2" d="M19.311,48.115c-0.149,0-0.3-0.026-0.448-0.083c-2.219-0.853-4.284-2.048-6.136-3.554
						c-0.536-0.435-0.617-1.223-0.182-1.758c0.436-0.536,1.224-0.617,1.758-0.182c1.647,1.339,3.483,2.401,5.456,3.159
						c0.645,0.248,0.966,0.971,0.719,1.615C20.287,47.811,19.813,48.115,19.311,48.115z"/>
				</g>
				<g id="Oval_3_">
					<path class="st3" d="M27.356,12.069c-1.386,0-2.729,0.184-4.006,0.53c-6.5,1.76-11.282,7.7-11.282,14.757"/>
					<path class="st2" d="M12.069,28.607c-0.69,0-1.25-0.56-1.25-1.25c0-7.453,5.019-14.018,12.205-15.964
						c1.405-0.381,2.863-0.574,4.332-0.574c0.69,0,1.25,0.56,1.25,1.25s-0.56,1.25-1.25,1.25c-1.249,0-2.486,0.164-3.679,0.487
						c-6.099,1.652-10.358,7.224-10.358,13.551C13.319,28.047,12.759,28.607,12.069,28.607z"/>
				</g>
				<g id="Path-4">
					<path class="st3" d="M49.08,48.276l4.828,4.828"/>
					<path class="st2" d="M53.908,54.354c-0.32,0-0.64-0.122-0.884-0.366l-4.827-4.828c-0.488-0.488-0.488-1.279,0-1.768
						s1.279-0.488,1.768,0l4.827,4.828c0.488,0.488,0.488,1.279,0,1.768C54.548,54.232,54.228,54.354,53.908,54.354z"/>
				</g>
				<g id="Rectangle">
					<path class="st1" d="M53.301,52.496c-1.427,1.427-1.427,3.742,0,5.169l8.919,8.919c1.427,1.427,3.742,1.427,5.169,0
						c1.427-1.427,1.427-3.742,0-5.169l-8.919-8.919C57.042,51.068,54.728,51.068,53.301,52.496z"/>
					<path class="st2" d="M64.804,68.902c-1.256,0-2.513-0.478-3.469-1.435l-8.919-8.919c-0.927-0.927-1.437-2.158-1.437-3.469
						s0.51-2.542,1.437-3.468l0,0c1.912-1.912,5.025-1.912,6.938,0l8.919,8.919C69.2,61.458,69.711,62.69,69.711,64
						c0,1.311-0.511,2.542-1.438,3.468C67.317,68.424,66.06,68.902,64.804,68.902z M55.885,52.675c-0.643,0-1.247,0.251-1.701,0.705
						l0,0c-0.454,0.454-0.704,1.058-0.704,1.7s0.25,1.247,0.704,1.701l8.919,8.919c0.908,0.908,2.494,0.908,3.402,0
						c0.454-0.454,0.705-1.058,0.705-1.7c0-0.643-0.251-1.247-0.705-1.701l-8.919-8.919C57.132,52.926,56.528,52.675,55.885,52.675z
						"/>
				</g>
				<g id="Line">
					<path class="st4" d="M65.977,64.009c-0.32,0-0.64-0.122-0.884-0.366l-8.851-8.851c-0.488-0.488-0.488-1.279,0-1.768
						s1.279-0.488,1.768,0l8.851,8.851c0.488,0.488,0.488,1.279,0,1.768C66.617,63.887,66.298,64.009,65.977,64.009z"/>
				</g>
			</g>
			<g id="Line-8">
				<path class="st1" d="M107.414,21.724h-13.82H107.414z M113.046,21.724h-1.787H113.046z M102.325,27.982h-6.578H102.325z"/>
				<path class="st2" d="M102.325,29.232h-6.578c-0.69,0-1.25-0.56-1.25-1.25s0.56-1.25,1.25-1.25h6.578c0.69,0,1.25,0.56,1.25,1.25
					S103.016,29.232,102.325,29.232z M113.046,22.974h-1.787c-0.69,0-1.25-0.56-1.25-1.25s0.56-1.25,1.25-1.25h1.787
					c0.69,0,1.25,0.56,1.25,1.25S113.736,22.974,113.046,22.974z M107.414,22.974h-13.82c-0.69,0-1.25-0.56-1.25-1.25
					s0.56-1.25,1.25-1.25h13.82c0.69,0,1.25,0.56,1.25,1.25S108.104,22.974,107.414,22.974z"/>
			</g>
			<g id="Line-8_1_">
				<path class="st1" d="M26.149,38.621H12.33H26.149z M7.644,38.621H4.247H7.644z M29.912,45.683h-6.578H29.912z"/>
				<path class="st2" d="M29.912,46.933h-6.578c-0.69,0-1.25-0.56-1.25-1.25s0.56-1.25,1.25-1.25h6.578c0.69,0,1.25,0.56,1.25,1.25
					S30.602,46.933,29.912,46.933z M26.149,39.871H12.33c-0.69,0-1.25-0.56-1.25-1.25s0.56-1.25,1.25-1.25h13.82
					c0.69,0,1.25,0.56,1.25,1.25S26.84,39.871,26.149,39.871z M7.644,39.871H4.248c-0.69,0-1.25-0.56-1.25-1.25s0.56-1.25,1.25-1.25
					h3.396c0.69,0,1.25,0.56,1.25,1.25S8.334,39.871,7.644,39.871z"/>
			</g>
		</g>
	</g>
</g>
</svg>
