<?xml version="1.0" encoding="utf-8"?>
<!-- Generator: Adobe Illustrator 24.0.3, SVG Export Plug-In . SVG Version: 6.00 Build 0)  -->
<svg version="1.1" id="Layer_1" xmlns="http://www.w3.org/2000/svg" xmlns:xlink="http://www.w3.org/1999/xlink" x="0px" y="0px"
	 viewBox="0 0 26 26" style="enable-background:new 0 0 26 26;" xml:space="preserve">
<style type="text/css">
	.st0{fill-rule:evenodd;clip-rule:evenodd;fill:#9F64FF;}
	.st1{fill-rule:evenodd;clip-rule:evenodd;fill:#FFFFFF;}
</style>
<title>Group 27</title>
<desc>Created with Sketch.</desc>
<g id="Page-2">
	<g id="SME_6" transform="translate(-16.000000, -169.000000)">
		<g id="Group-34">
			<g id="Group-38">
				<g id="Group-18" transform="translate(16.000000, 169.000000)">
					<g id="contact">
						<g id="Group-27">
							<path id="Rectangle-2" class="st0" d="M13,0L13,0c7.18,0,13,5.82,13,13l0,0c0,7.18-5.82,13-13,13l0,0C5.82,26,0,20.18,0,13
								l0,0C0,5.82,5.82,0,13,0z"/>
							<path id="Fill-1" class="st1" d="M12.951,20c0.769,0,1.397-0.629,1.397-1.402h-2.799C11.549,19.371,12.182,20,12.951,20z
								 M17.5,15.799v-3.848c0-2.171-1.47-3.921-3.5-4.409V7.049C14,6.489,13.511,6,12.951,6c-0.561,0-1.049,0.489-1.049,1.049
								v0.493c-2.031,0.488-3.5,2.238-3.5,4.409v3.848L7,17.201v0.701h11.902v-0.701L17.5,15.799z"/>
						</g>
					</g>
				</g>
			</g>
		</g>
	</g>
</g>
</svg>
