<?xml version="1.0" encoding="utf-8"?>
<!-- Generator: Adobe Illustrator 24.0.3, SVG Export Plug-In . SVG Version: 6.00 Build 0)  -->
<svg version="1.1" id="Layer_1" xmlns="http://www.w3.org/2000/svg" xmlns:xlink="http://www.w3.org/1999/xlink" x="0px" y="0px"
	 viewBox="0 0 26 26" style="enable-background:new 0 0 26 26;" xml:space="preserve">
<style type="text/css">
	.st0{fill-rule:evenodd;clip-rule:evenodd;fill:#25D1C5;}
	.st1{fill-rule:evenodd;clip-rule:evenodd;fill:#FFFFFF;}
</style>
<title>Group 26</title>
<desc>Created with Sketch.</desc>
<path id="Rectangle-2" class="st0" d="M13,0L13,0c7.18,0,13,5.82,13,13l0,0c0,7.18-5.82,13-13,13l0,0C5.82,26,0,20.18,0,13l0,0
	C0,5.82,5.82,0,13,0z"/>
<path id="Combined-Shape" class="st1" d="M19.286,13.878c0.816,0.238,1.414,0.991,1.414,1.883c0,0.892-0.598,1.645-1.414,1.883
	v1.819c0,0.303-0.246,0.549-0.548,0.549s-0.549-0.246-0.549-0.549v-1.819c-0.816-0.238-1.414-0.991-1.414-1.883
	c0-0.892,0.598-1.645,1.414-1.883V7.756c0-0.303,0.246-0.549,0.549-0.549s0.548,0.246,0.548,0.549V13.878z M18.738,16.627
	c0.477,0,0.865-0.389,0.865-0.866c0-0.477-0.388-0.866-0.865-0.866c-0.477,0-0.866,0.388-0.866,0.866
	C17.872,16.238,18.26,16.627,18.738,16.627z M13.345,6.715c1.082,0,1.962,0.88,1.962,1.962c0,0.892-0.598,1.645-1.414,1.883v8.902
	c0,0.303-0.245,0.549-0.548,0.549c-0.303,0-0.548-0.246-0.548-0.549V10.56c-0.816-0.238-1.414-0.991-1.414-1.883
	C11.383,7.595,12.263,6.715,13.345,6.715z M13.345,9.543c0.477,0,0.866-0.388,0.866-0.866c0-0.477-0.388-0.865-0.866-0.865
	c-0.477,0-0.866,0.388-0.866,0.865C12.479,9.154,12.868,9.543,13.345,9.543z M8.5,11.726c0.816,0.238,1.414,0.991,1.414,1.883
	c0,0.892-0.598,1.645-1.414,1.883v3.971c0,0.303-0.245,0.549-0.549,0.549c-0.303,0-0.548-0.246-0.548-0.549v-3.971
	c-0.816-0.238-1.414-0.991-1.414-1.883c0-0.892,0.598-1.645,1.414-1.883V7.756c0-0.303,0.245-0.549,0.548-0.549
	c0.303,0,0.549,0.246,0.549,0.549V11.726z M7.952,14.474c0.477,0,0.866-0.388,0.866-0.866c0-0.477-0.388-0.866-0.866-0.866
	c-0.477,0-0.865,0.388-0.865,0.866C7.087,14.086,7.475,14.474,7.952,14.474z"/>
</svg>
