<?xml version="1.0" encoding="utf-8"?>
<!-- Generator: Adobe Illustrator 24.0.3, SVG Export Plug-In . SVG Version: 6.00 Build 0)  -->
<svg version="1.1" id="Layer_1" xmlns="http://www.w3.org/2000/svg" xmlns:xlink="http://www.w3.org/1999/xlink" x="0px" y="0px"
	 viewBox="0 0 26 26" style="enable-background:new 0 0 26 26;" xml:space="preserve">
<style type="text/css">
	.st0{fill:#F87393;}
</style>
<title>Group 35</title>
<desc>Created with Sketch.</desc>
<path class="st0" d="M13,0C5.82,0,0,5.82,0,13s5.82,13,13,13s13-5.82,13-13S20.18,0,13,0z M20.368,12.384l-2.631,2.549
	c-0.052,0.05-0.075,0.122-0.063,0.193l0.621,3.599c0.071,0.412-0.096,0.82-0.436,1.065C17.667,19.93,17.442,20,17.216,20
	c-0.174,0-0.349-0.042-0.511-0.126l-3.253-1.699c-0.064-0.033-0.14-0.033-0.204,0l-3.253,1.699
	c-0.372,0.194-0.814,0.163-1.154-0.083c-0.34-0.245-0.507-0.654-0.436-1.065l0.621-3.599c0.012-0.071-0.711-0.843-0.763-0.893
	l-1.931-1.849c-0.301-0.292-0.407-0.719-0.277-1.117c0.13-0.397,0.469-0.681,0.885-0.741l3.637-0.525
	c0.071-0.01,0.133-0.055,0.165-0.119l1.626-3.275C12.553,6.233,12.93,6,13.35,6c0.42,0,0.797,0.233,0.983,0.607l1.626,3.275
	c0.032,0.064,0.094,0.109,0.165,0.119l3.637,0.525c0.416,0.06,0.755,0.344,0.885,0.741C20.775,11.665,20.669,12.093,20.368,12.384z"
	/>
</svg>
