<?xml version="1.0" encoding="utf-8"?>
<!-- Generator: Adobe Illustrator 24.0.3, SVG Export Plug-In . SVG Version: 6.00 Build 0)  -->
<svg version="1.1" id="Layer_1" xmlns="http://www.w3.org/2000/svg" xmlns:xlink="http://www.w3.org/1999/xlink" x="0px" y="0px"
	 viewBox="0 0 17 17" style="enable-background:new 0 0 17 17;" xml:space="preserve">
<style type="text/css">
	.st0{opacity:0.7;}
	.st1{fill-rule:evenodd;clip-rule:evenodd;fill:#31394E;}
</style>
<title>Shape</title>
<desc>Created with Sketch.</desc>
<g id="Page-2" class="st0">
	<g id="SME_7" transform="translate(-27.000000, -158.000000)">
		<g id="Group-9" transform="translate(19.000000, 145.000000)">
			<g id="Group-12">
				<path id="Shape" class="st1" d="M23.904,28.484l-3.981-4.208c1.024-1.237,1.585-2.793,1.585-4.412
					c0-3.785-3.03-6.864-6.754-6.864S8,16.079,8,19.864s3.03,6.864,6.754,6.864c1.398,0,2.73-0.429,3.869-1.242l4.011,4.24
					C22.802,29.902,23.028,30,23.27,30c0.229,0,0.446-0.089,0.61-0.25C24.23,29.408,24.241,28.84,23.904,28.484z M14.754,14.791
					c2.753,0,4.992,2.276,4.992,5.073s-2.239,5.073-4.992,5.073s-4.992-2.276-4.992-5.073S12.001,14.791,14.754,14.791z"/>
			</g>
		</g>
	</g>
</g>
</svg>
