<?xml version="1.0" encoding="utf-8"?>
<!-- Generator: Adobe Illustrator 24.0.3, SVG Export Plug-In . SVG Version: 6.00 Build 0)  -->
<svg version="1.1" id="Layer_1" xmlns="http://www.w3.org/2000/svg" xmlns:xlink="http://www.w3.org/1999/xlink" x="0px" y="0px"
	 viewBox="0 0 26 26" style="enable-background:new 0 0 26 26;" xml:space="preserve">
<style type="text/css">
	.st0{fill:#4BCA81;}
</style>
<title>Group 36</title>
<desc>Created with Sketch.</desc>
<path class="st0" d="M13,0C5.82,0,0,5.82,0,13s5.82,13,13,13s13-5.82,13-13S20.18,0,13,0z M9.722,13.53
	c0,0.181-0.031,0.354-0.071,0.527l5.612,3.125c0.409-0.354,0.944-0.58,1.543-0.58c1.267,0,2.298,0.986,2.298,2.199
	S18.073,21,16.806,21c-1.267,0-2.298-0.986-2.298-2.199c0-0.166,0.024-0.331,0.063-0.489l-5.604-3.133
	c-0.425,0.377-0.984,0.61-1.606,0.61C6.055,15.789,5,14.78,5,13.53s1.055-2.259,2.361-2.259c0.622,0,1.181,0.233,1.606,0.61
	l5.549-3.095c-0.039-0.173-0.071-0.346-0.071-0.527c0-1.25,1.055-2.259,2.361-2.259c1.307,0,2.361,1.009,2.361,2.259
	s-1.055,2.259-2.361,2.259c-0.622,0-1.181-0.233-1.606-0.61l-5.549,3.095C9.691,13.176,9.722,13.349,9.722,13.53z"/>
</svg>
