<?xml version="1.0" encoding="utf-8"?>
<!-- Generator: Adobe Illustrator 24.0.3, SVG Export Plug-In . SVG Version: 6.00 Build 0)  -->
<svg version="1.1" id="Layer_1" xmlns="http://www.w3.org/2000/svg" xmlns:xlink="http://www.w3.org/1999/xlink" x="0px" y="0px"
	 viewBox="0 0 60 22" style="enable-background:new 0 0 60 22;" xml:space="preserve">
<style type="text/css">
	.st0{opacity:0.1;fill-rule:evenodd;clip-rule:evenodd;fill:#7101CD;}
	.st1{enable-background:new    ;}
	.st2{fill:#7101CD;}
	.st3{opacity:0.7;fill-rule:evenodd;clip-rule:evenodd;fill:#7101CD;enable-background:new    ;}
</style>
<title>Group 5</title>
<desc>Created with Sketch.</desc>
<path id="Rectangle" class="st0" d="M2,0h56c1.105,0,2,0.895,2,2v18c0,1.105-0.895,2-2,2H2c-1.105,0-2-0.895-2-2V2
	C0,0.895,0.895,0,2,0z"/>
<g class="st1">
	<path class="st2" d="M23.722,14.818c-0.539-0.18-0.963-0.412-1.271-0.698l0.407-0.858c0.293,0.265,0.669,0.479,1.127,0.644
		c0.458,0.165,0.93,0.248,1.414,0.248c0.638,0,1.115-0.108,1.43-0.325c0.315-0.216,0.473-0.504,0.473-0.863
		c0-0.264-0.086-0.479-0.258-0.644s-0.385-0.291-0.638-0.379c-0.253-0.089-0.61-0.188-1.072-0.298
		c-0.58-0.139-1.047-0.278-1.402-0.418c-0.356-0.139-0.66-0.354-0.913-0.643c-0.253-0.29-0.379-0.681-0.379-1.172
		c0-0.411,0.108-0.781,0.324-1.111s0.544-0.594,0.984-0.792c0.44-0.198,0.986-0.297,1.639-0.297c0.455,0,0.902,0.059,1.342,0.176
		c0.44,0.118,0.817,0.286,1.133,0.506l-0.363,0.881c-0.323-0.206-0.667-0.361-1.034-0.468s-0.726-0.159-1.078-0.159
		c-0.624,0-1.091,0.113-1.402,0.341c-0.312,0.228-0.468,0.521-0.468,0.88c0,0.264,0.088,0.479,0.264,0.644s0.394,0.293,0.654,0.385
		s0.614,0.188,1.062,0.292c0.58,0.139,1.045,0.278,1.397,0.418c0.352,0.139,0.655,0.352,0.908,0.638s0.379,0.671,0.379,1.155
		c0,0.403-0.11,0.771-0.33,1.105c-0.22,0.333-0.554,0.598-1.001,0.792s-0.997,0.291-1.65,0.291
		C24.82,15.088,24.261,14.998,23.722,14.818z"/>
	<path class="st2" d="M34.711,9.759c0.436,0.429,0.654,1.058,0.654,1.886V15h-1.057v-3.234c0-0.564-0.135-0.989-0.406-1.275
		s-0.66-0.43-1.166-0.43c-0.572,0-1.023,0.167-1.354,0.501s-0.495,0.812-0.495,1.436V15h-1.056V6.838h1.056v3.157
		c0.219-0.278,0.508-0.495,0.864-0.649c0.355-0.153,0.753-0.23,1.193-0.23C33.686,9.115,34.273,9.329,34.711,9.759z"/>
	<path class="st2" d="M41.299,9.709c0.43,0.396,0.645,0.986,0.645,1.771V15h-1.002v-0.77c-0.176,0.271-0.427,0.479-0.753,0.621
		c-0.327,0.143-0.714,0.215-1.161,0.215c-0.652,0-1.175-0.158-1.566-0.474c-0.393-0.315-0.59-0.729-0.59-1.243
		c0-0.513,0.188-0.926,0.562-1.237s0.968-0.468,1.782-0.468h1.672v-0.209c0-0.454-0.132-0.803-0.396-1.045
		c-0.264-0.241-0.652-0.362-1.166-0.362c-0.344,0-0.682,0.057-1.012,0.17c-0.33,0.114-0.608,0.267-0.836,0.457l-0.439-0.792
		c0.301-0.242,0.66-0.428,1.078-0.556s0.861-0.192,1.33-0.192C40.252,9.115,40.87,9.313,41.299,9.709z M40.248,13.982
		c0.294-0.18,0.507-0.435,0.639-0.765v-0.813h-1.628c-0.896,0-1.342,0.301-1.342,0.901c0,0.294,0.113,0.524,0.341,0.693
		c0.227,0.169,0.543,0.253,0.945,0.253C39.607,14.252,39.955,14.162,40.248,13.982z"/>
	<path class="st2" d="M45.727,9.379c0.359-0.176,0.796-0.264,1.31-0.264v1.022c-0.06-0.007-0.14-0.011-0.242-0.011
		c-0.572,0-1.021,0.171-1.348,0.512s-0.489,0.827-0.489,1.457V15H43.9V9.17h1.013v0.979C45.096,9.812,45.367,9.555,45.727,9.379z"/>
	<path class="st2" d="M53.525,12.437h-4.729c0.065,0.514,0.292,0.927,0.677,1.238s0.863,0.467,1.436,0.467
		c0.696,0,1.258-0.234,1.683-0.703l0.583,0.682c-0.264,0.308-0.592,0.543-0.984,0.704s-0.83,0.242-1.314,0.242
		c-0.616,0-1.162-0.127-1.639-0.38s-0.846-0.606-1.105-1.062c-0.261-0.455-0.391-0.968-0.391-1.54c0-0.564,0.126-1.074,0.379-1.529
		c0.254-0.454,0.602-0.809,1.045-1.062s0.944-0.379,1.502-0.379c0.557,0,1.054,0.126,1.49,0.379s0.777,0.607,1.023,1.062
		c0.245,0.455,0.368,0.976,0.368,1.562C53.548,12.199,53.541,12.305,53.525,12.437z M49.396,10.468
		c-0.341,0.309-0.541,0.712-0.6,1.21h3.739c-0.059-0.491-0.258-0.893-0.599-1.204s-0.765-0.468-1.271-0.468
		S49.736,10.16,49.396,10.468z"/>
</g>
<path id="Path" class="st3" d="M19.417,10.996L13.425,5.5v3.279h-1.274C8.202,8.779,5,11.458,5,14.762V16.5l0.566-0.519
	c1.924-1.763,4.645-2.768,7.499-2.768h0.361v3.279L19.417,10.996z"/>
</svg>
