<?xml version="1.0" encoding="utf-8"?>
<!-- Generator: Adobe Illustrator 24.0.3, SVG Export Plug-In . SVG Version: 6.00 Build 0)  -->
<svg version="1.1" id="Layer_1" xmlns="http://www.w3.org/2000/svg" xmlns:xlink="http://www.w3.org/1999/xlink" x="0px" y="0px"
	 viewBox="0 0 26 26" style="enable-background:new 0 0 26 26;" xml:space="preserve">
<style type="text/css">
	.st0{fill:#F3D050;}
</style>
<title>terms</title>
<desc>Created with Sketch.</desc>
<path class="st0" d="M13,0C5.82,0,0,5.82,0,13s5.82,13,13,13s13-5.82,13-13S20.18,0,13,0z M11.4,10.45c0-0.24,0.21-0.45,0.45-0.45
	h5.1c0.24,0,0.45,0.21,0.45,0.45v0.9c0,0.24-0.21,0.45-0.45,0.45h-5.1c-0.24,0-0.45-0.21-0.45-0.45V10.45z M10.2,18.55
	c0,0.24-0.21,0.45-0.45,0.45h-3.3C6.21,19,6,18.79,6,18.55v-3.9c0-0.24,0.21-0.45,0.45-0.45h3.3c0.24,0,0.45,0.21,0.45,0.45V18.55z
	 M10.2,11.35c0,0.24-0.21,0.45-0.45,0.45h-3.3C6.21,11.8,6,11.59,6,11.35v-3.9C6,7.21,6.21,7,6.45,7h3.3c0.24,0,0.45,0.21,0.45,0.45
	V11.35z M17.4,18.55c0,0.24-0.21,0.45-0.45,0.45h-5.1c-0.24,0-0.45-0.21-0.45-0.45v-0.9c0-0.24,0.21-0.45,0.45-0.45h5.1
	c0.24,0,0.45,0.21,0.45,0.45V18.55z M20.4,15.55c0,0.24-0.21,0.45-0.45,0.45h-8.1c-0.24,0-0.45-0.21-0.45-0.45v-0.9
	c0-0.24,0.21-0.45,0.45-0.45h8.1c0.24,0,0.45,0.21,0.45,0.45V15.55z M20.4,8.35c0,0.24-0.21,0.45-0.45,0.45h-8.1
	c-0.24,0-0.45-0.21-0.45-0.45v-0.9C11.4,7.21,11.61,7,11.85,7h8.1c0.24,0,0.45,0.21,0.45,0.45V8.35z"/>
</svg>
