<?xml version="1.0" encoding="utf-8"?>
<!-- Generator: Adobe Illustrator 24.1.0, SVG Export Plug-In . SVG Version: 6.00 Build 0)  -->
<svg version="1.1" id="Layer_1" xmlns="http://www.w3.org/2000/svg" xmlns:xlink="http://www.w3.org/1999/xlink" x="0px" y="0px"
	 viewBox="0 0 35 34.3" style="enable-background:new 0 0 35 34.3;" xml:space="preserve">
<style type="text/css">
	.st0{fill-rule:evenodd;clip-rule:evenodd;fill:none;stroke:#A8B7C7;}
	.st1{fill:#16325C;}
</style>
<desc>Created with Sketch.</desc>
<path id="Shape" class="st1" d="M17.5,7.6c-5.3,0-9.5,4.2-9.5,9.5c0,5.3,4.2,9.5,9.5,9.5c5.3,0,9.5-4.2,9.5-9.5
	C27,11.9,22.8,7.6,17.5,7.6z M17.5,25.1c-4.4,0-8-3.6-8-8c0-4.4,3.6-8,8-8c4.4,0,8,3.6,8,8C25.5,21.6,21.9,25.1,17.5,25.1z
	 M24.2,15.1V18c0,0.4-0.3,0.7-0.7,0.7s-0.7-0.3-0.7-0.7v-1L20,19.6c-0.3,0.3-0.8,0.3-1,0l-3.4-3.4l-3.4,3.4c-0.3,0.3-0.8,0.3-1,0
	c-0.3-0.3-0.3-0.8,0-1l4-4c0.3-0.3,0.8-0.3,1,0l3.4,3.4l2.2-2.2h-1c-0.4,0-0.7-0.3-0.7-0.7s0.3-0.7,0.7-0.7h2.8
	C23.9,14.4,24.2,14.7,24.2,15.1L24.2,15.1z"/>
</svg>
