<?xml version="1.0" encoding="utf-8"?>
<!-- Generator: Adobe Illustrator 24.1.0, SVG Export Plug-In . SVG Version: 6.00 Build 0)  -->
<svg version="1.1" id="Capa_1" xmlns="http://www.w3.org/2000/svg" xmlns:xlink="http://www.w3.org/1999/xlink" x="0px" y="0px"
	 viewBox="0 0 48 48" style="enable-background:new 0 0 48 48;" xml:space="preserve">
<style type="text/css">
	.st0{fill:#1BD741;}
</style>
<g>
	<path class="st0" d="M0,48.026l3.362-11.94c-2.162-3.672-3.3-7.851-3.3-12.143c0-13.217,10.753-23.969,23.969-23.969
		S48,10.726,48,23.943S37.248,47.912,24.031,47.912c-4.118,0-8.151-1.054-11.718-3.056L0,48.026z M12.942,40.496l0.734,0.448
		c3.11,1.899,6.691,2.902,10.355,2.902c10.975,0,19.903-8.929,19.903-19.903S35.006,4.04,24.031,4.04S4.128,12.968,4.128,23.943
		c0,3.824,1.087,7.537,3.143,10.739l0.494,0.769l-1.936,6.876L12.942,40.496z"/>
	<path class="st0" d="M17.298,12.787l-1.555-0.085c-0.489-0.027-0.968,0.137-1.337,0.457c-0.754,0.655-1.96,1.921-2.33,3.57
		c-0.552,2.46,0.301,5.471,2.51,8.483c2.209,3.012,6.325,7.831,13.603,9.889c2.345,0.663,4.191,0.216,5.614-0.695
		c1.127-0.721,1.905-1.879,2.185-3.187l0.248-1.16c0.079-0.369-0.108-0.743-0.451-0.901l-5.256-2.423
		c-0.341-0.157-0.746-0.058-0.975,0.24l-2.064,2.675c-0.156,0.202-0.423,0.282-0.664,0.198c-1.413-0.497-6.147-2.479-8.744-7.482
		c-0.113-0.217-0.085-0.48,0.075-0.665l1.972-2.281c0.201-0.233,0.252-0.561,0.131-0.844l-2.266-5.301
		C17.874,12.993,17.604,12.804,17.298,12.787z"/>
</g>
</svg>
