<?xml version="1.0" encoding="utf-8"?>
<!-- Generator: Adobe Illustrator 24.1.0, SVG Export Plug-In . SVG Version: 6.00 Build 0)  -->
<svg version="1.1" id="Capa_1" xmlns="http://www.w3.org/2000/svg" xmlns:xlink="http://www.w3.org/1999/xlink" x="0px" y="0px"
	 viewBox="0 0 48 48" style="enable-background:new 0 0 48 48;" xml:space="preserve">
<style type="text/css">
	.st0{fill:#55ACEE;}
	.st1{fill:#F1F2F2;}
</style>
<g>
	<circle class="st0" cx="24" cy="24" r="24"/>
	<g>
		<path class="st1" d="M38.701,17.248c-1.028,0.456-2.135,0.765-3.295,0.902c1.185-0.71,2.094-1.833,2.523-3.173
			c-1.108,0.658-2.337,1.135-3.643,1.392c-1.046-1.114-2.537-1.811-4.188-1.811c-3.168,0-5.737,2.569-5.737,5.737
			c0,0.45,0.051,0.887,0.149,1.307c-4.768-0.239-8.995-2.523-11.825-5.995c-0.494,0.847-0.777,1.833-0.777,2.884
			c0,1.99,1.014,3.746,2.552,4.775c-0.94-0.03-1.825-0.287-2.598-0.718c0,0.024,0,0.049,0,0.073c0,2.78,1.978,5.098,4.602,5.625
			c-0.481,0.132-0.989,0.202-1.511,0.202c-0.37,0-0.729-0.036-1.079-0.102c0.73,2.279,2.848,3.937,5.359,3.984
			c-1.964,1.539-4.437,2.456-7.125,2.456c-0.462,0-0.92-0.027-1.368-0.08c2.537,1.628,5.554,2.578,8.793,2.578
			c10.552,0,16.322-8.741,16.322-16.323c0-0.249-0.006-0.496-0.017-0.742C36.96,19.408,37.933,18.398,38.701,17.248L38.701,17.248z"
			/>
	</g>
</g>
</svg>
